<?xml version="1.0" encoding="utf-8"?>
<!-- Generator: Adobe Illustrator 21.1.0, SVG Export Plug-In . SVG Version: 6.00 Build 0)  -->
<svg version="1.1" xmlns="http://www.w3.org/2000/svg" xmlns:xlink="http://www.w3.org/1999/xlink" x="0px" y="0px"
	 viewBox="0 0 483.8 483.8" style="enable-background:new 0 0 483.8 483.8;" xml:space="preserve">
<style type="text/css">
	.st0{display:none;}
	.st1{display:inline;fill:none;stroke:#D8D8D8;stroke-width:4;}
	.st2{display:inline;fill:none;stroke:#D8D8D8;stroke-width:6;}
	.st3{fill:none;stroke:#CC9785;stroke-width:6;}
	.st4{fill:none;stroke:#CC9785;stroke-width:7;}
</style>
<g id="Layer_1">
	<title>Fill 1</title>
	<desc>Created with Sketch.</desc>
</g>
<g id="Layer_2" class="st0">
	<ellipse class="st1" cx="245" cy="310.8" rx="52.5" ry="54.9"/>
	<ellipse class="st1" cx="199.7" cy="370.1" rx="49" ry="51.2"/>
	<ellipse class="st1" cx="236.2" cy="163.8" rx="52.5" ry="54.9"/>
	<ellipse class="st1" cx="288.1" cy="111.5" rx="49" ry="51.2"/>
	<ellipse class="st1" cx="265.7" cy="144.9" rx="94" ry="93.6"/>
	<ellipse class="st1" cx="216.3" cy="334.6" rx="94" ry="93.6"/>
	<ellipse class="st1" cx="243.2" cy="244.9" rx="140.6" ry="229.9"/>
	<rect x="3.9" y="3.7" class="st2" width="477.4" height="475.2"/>
	<line class="st1" x1="2.3" y1="238.3" x2="484" y2="239"/>
	<line class="st1" x1="242.4" y1="479.9" x2="243" y2="0.4"/>
	<line class="st1" x1="118.7" y1="4.4" x2="369.3" y2="477.7"/>
	<line class="st1" x1="366.7" y1="4.4" x2="113.1" y2="479.1"/>
</g>
<g id="Layer_3">
</g>
<g id="Layer_4">
	<g>
		<g>
			<g>
				<path class="st3" d="M242.6,186c6.1,10.6,37.1,65.4,53,99.3c15.3,32.6,3.3,59.6-16.3,74.4c-8.9,6.7-19.4,10.7-29.7,11.2
					c-37.9,1.7-72.6-35.4-53.5-82C216.5,238.7,237.3,196.7,242.6,186z"/>
			</g>
		</g>
	</g>
	<path class="st3" d="M194.3,421.7c39.7,2.1,60.9-27.7,58.2-74.5c-3-52.2-33.2-98-36.2-99.6"/>
	<g>
		<g>
			<path class="st3" d="M239.7,288.3c-6.1-10.6-37.1-65.4-53-99.3c-15.3-32.6-3.3-59.6,16.3-74.4c8.9-6.7,19.4-10.7,29.7-11.2
				c37.9-1.7,72.6,35.4,53.5,82C265.8,235.6,245,277.6,239.7,288.3"/>
		</g>
	</g>
	<path class="st3" d="M291.9,55.6c-39.7-2.1-60.9,27.7-58.2,74.5c3,52.2,33.2,98,36.2,99.6"/>
	<ellipse class="st4" cx="244.1" cy="243.9" rx="140.9" ry="230.3"/>
</g>
<g id="Layer_5">
</g>
</svg>
